<svg class="icon-logo" version="1.1" xmlns="http://www.w3.org/2000/svg" xmlns:xlink="http://www.w3.org/1999/xlink" xmlns:a="http://ns.adobe.com/AdobeSVGViewerExtensions/3.0/" x="0px" y="0px" width="287.3px" height="44.4px" viewBox="0 0 287.3 44.4" style="enable-background:new 0 0 287.3 44.4" xml:space="preserve">
    <defs/>
    <g id="XMLID_27_">
        <path id="XMLID_57_" d="M219.9,13.3c-1.8-2.3-4.1-4.1-6.7-5.5c-2.7-1.4-6.3-2.3-10-1.7c-3.4,0.6-5.8,2.1-8.1,4.1 c-3.2-2.7-7.6-4.9-13.5-4.2c-5,0.6-8.8,3.3-11.3,6.6c-1.3,1.7-2.3,3.7-2.7,6.2c-0.2,1.3-0.2,2.8-0.2,4.3v8.9c0,1.6-0.2,3.2,0.2,4.3 c0.8,2.1,3.1,3.2,6,3c2.3-0.1,4.5-1.4,4.9-3.5c0.2-0.8,0.1-1.9,0.1-3v-9.1c0-1.1-0.1-2.1,0.1-3c0.4-2.5,2.5-3.8,5.5-3.5 c2,0.2,3.4,0.8,4.3,1.8c0.5,0.5,0.9,1.2,1,2c0.1,0.8,0,1.8,0,3v9.1c0,1.1-0.1,2.1,0.1,2.9c0.4,1.6,1.8,2.5,3.1,2.9 c1.8,0.5,3.7,0.3,5.1-0.4c1.3-0.6,2.5-1.6,2.5-3.6c0-3.8,0-7.9,0-12c0-1.1-0.1-2,0.2-2.8c0.7-2.1,3.1-3.3,6-3 c2.4,0.3,4.8,1.6,4.8,4.3c0.1,4,0,8.3,0,12.2c0,1.1-0.1,2.1,0.2,2.8c0.5,1.4,1.8,2.2,3.5,2.6c2.9,0.6,5.7-0.3,6.8-2 c0.4-0.7,0.5-1.5,0.5-2.6c0-3.7,0-8.1,0.1-11.9c0.1-2.2,0-4-0.6-5.5C221.5,15.7,220.8,14.4,219.9,13.3"/>
        <path id="XMLID_54_" d="M129.5,19.1c-1.1-6.4-5.6-10.3-11.6-11.9c-3.1-0.8-7.3-1-10.6-0.4c-3.2,0.6-6,1.7-8.1,3.4 c-2.7,2.2-4.8,5.7-5.3,10.1c-0.6,4.9,0.9,9.1,3.1,12c2.2,3,5.2,5,9.1,6.2c6.4,1.9,14.6,0.3,18.6-2.7c1.3-1,2.8-2.5,3-4.7 c0.3-2.5-1.4-3.9-3.6-4c-2.5-0.1-4,1.4-5.6,2c-3.5,1.4-10.1,1.4-12-1.5c-0.3-0.4-0.4-0.9-0.5-1.6c5,0,10.5,0.1,15.1,0.1 c2.7,0,5.5,0.2,6.9-0.9C129.7,23.9,129.9,21.4,129.5,19.1 M106.3,18.4c0.3-2.4,2.6-3.5,5.2-3.7c3.2-0.2,6.2,0.8,6.5,3.7H106.3z"/>
        <path id="XMLID_53_" d="M89.3,29C89,29,88.6,28.9,88,28.9c-0.2,0-0.5,0-0.7,0c-0.2,0-0.5,0-0.7,0c-2.3,0-4.7-0.2-5.9-1.4 c-1.1-1.1-1.5-7.1-1.2-17.7c0-0.9,0-1.5,0-1.8c0-0.2,0-0.5,0-0.7c0-0.6,0-1.2,0-1.8c-0.2-1.2-0.9-2.3-2.1-3 c-1.2-0.8-2.6-1.1-3.9-0.9c-1.8,0.2-3.2,1.1-3.9,2.6c-0.4,0.8-0.4,1.7-0.5,2.5l0,0.1C68.6,18,68,30.8,74.3,36.3 c2,1.7,4.8,2.8,8.3,3c0.6,0,1.3,0.1,2,0.1c1,0,2.1-0.1,3.2-0.2c1.8-0.2,3.2-0.6,4.2-2c1.1-1.6,0.9-3.6,0.5-4.9 C91.9,30.5,90.8,29.4,89.3,29"/>
        <path id="XMLID_50_" d="M163.6,16.7c-0.7-1.9-1.8-3.6-3.1-5.1c-1.3-1.5-2.9-2.7-4.7-3.7c-1.8-1-3.7-1.5-5.8-1.8 c-0.3,0-0.6-0.1-0.9-0.1h-1c-3.4,0-6.5,0.9-9.2,2.7c-2.7,1.8-4.7,4.2-6,7.2c-0.5,1.1-0.8,2.1-1.1,3.2c-0.2,1.1-0.4,2.2-0.4,3.4 c0,1.2,0.1,2.3,0.4,3.4c0.3,1.1,0.6,2.2,1.1,3.2c1.3,2.9,3.3,5.3,6,7.2c2.7,1.8,5.7,2.8,9.2,2.8c1.3,0,2.6-0.1,3.8-0.4 c1.1-0.3,2.3-0.7,3.4-1.2c0.2-0.1,0.4-0.2,0.5-0.3c0.2-0.1,0.4-0.2,0.6-0.3c1,1.5,2.2,2.2,3.8,2.2c1.1,0,2.2-0.4,3.1-1.3 c0.9-0.9,1.4-1.9,1.4-3.1V22.6C164.8,20.5,164.4,18.6,163.6,16.7 M155.2,25.7c-0.4,0.9-1,1.7-1.6,2.4c-0.7,0.7-1.5,1.2-2.4,1.6 c-0.9,0.4-1.9,0.6-3,0.6c-1,0-1.9-0.2-2.8-0.6c-0.9-0.4-1.7-1-2.4-1.6c-0.7-0.7-1.3-1.5-1.7-2.4c-0.4-0.9-0.7-1.9-0.7-3 c0-1,0.2-2,0.6-2.9c0.4-0.9,1-1.8,1.7-2.5c0.7-0.7,1.5-1.3,2.4-1.7c0.9-0.4,1.9-0.6,2.9-0.6c1,0,2,0.2,2.9,0.6 c0.9,0.4,1.8,1,2.5,1.7c0.7,0.7,1.3,1.5,1.7,2.5c0.4,0.9,0.6,1.9,0.6,2.9C155.8,23.7,155.6,24.8,155.2,25.7"/>
        <path id="XMLID_47_" d="M256.6,16c-0.9-2-2.1-3.8-3.6-5.3c-1.5-1.5-3.3-2.7-5.3-3.6c-2-0.9-4.2-1.3-6.4-1.3 c-2.4,0.1-4.6,0.6-6.6,1.5c-2,0.9-3.8,2.1-5.3,3.6c-1.5,1.5-2.7,3.3-3.5,5.3c-0.9,2-1.3,4.2-1.3,6.5c0,2.4,0.4,4.6,1.3,6.6 c0.9,2,2.1,3.8,3.6,5.3c1.5,1.5,3.3,2.7,5.3,3.5c2,0.8,4.2,1.2,6.5,1.2c2.3,0,4.5-0.4,6.6-1.3c2-0.9,3.8-2.1,5.3-3.6 c1.5-1.5,2.7-3.3,3.6-5.3c0.9-2,1.3-4.2,1.3-6.5C258,20.2,257.5,18,256.6,16 M248.4,25.6c-0.4,0.9-1,1.8-1.7,2.5 c-0.7,0.7-1.5,1.3-2.5,1.7c-0.9,0.4-1.9,0.6-3,0.6c-1.1,0-2.1-0.2-3-0.6c-0.9-0.4-1.7-1-2.5-1.7c-0.7-0.7-1.3-1.5-1.7-2.5 c-0.4-0.9-0.6-1.9-0.6-3c0-1.1,0.2-2.1,0.6-3.1c0.4-0.9,1-1.8,1.7-2.5c0.7-0.7,1.5-1.2,2.5-1.6c0.9-0.4,1.9-0.6,3-0.6 c2.2,0.1,4,0.9,5.5,2.3c1.4,1.5,2.2,3.3,2.3,5.4C249,23.6,248.8,24.6,248.4,25.6"/>
        <path id="XMLID_46_" d="M286.6,24.7c-0.5-1.3-1.2-2.4-2.1-3.4c-0.9-1-1.9-1.8-3.2-2.3c-1.2-0.6-2.5-0.9-3.9-0.9h-7.7 c-0.5,0-1-0.2-1.3-0.5c-0.3-0.3-0.4-0.7-0.4-1.2c0-0.5,0.1-0.8,0.4-1.2c0.3-0.3,0.7-0.5,1.3-0.5h11.8c1.1,0,2.1-0.4,3-1.3 c0.9-0.9,1.3-1.9,1.3-3.1c0-1-0.4-2-1.2-3c-0.8-0.9-1.8-1.4-3.1-1.4h-12.2c-1.5,0-2.8,0.4-4,0.9c-1.2,0.6-2.3,1.3-3.2,2.3 c-0.9,1-1.6,2.1-2.2,3.3c-0.5,1.3-0.8,2.6-0.8,3.9c0,1.5,0.2,2.8,0.7,4.1c0.5,1.3,1.2,2.4,2.1,3.4c0.9,1,1.9,1.7,3.1,2.3 c1.2,0.6,2.5,0.9,3.9,0.9h7.5c1.2,0,1.8,0.5,1.8,1.6c0,1.1-0.6,1.6-1.8,1.6h-11.6c-1.2,0-2.2,0.5-3,1.5c-0.8,0.9-1.2,2-1.2,3.1 c0,1.3,0.4,2.3,1.2,3.1c0.8,0.8,1.8,1.2,3,1.2h11.6c1.6,0,3.1-0.3,4.4-0.8c1.3-0.5,2.5-1.3,3.4-2.2c1-0.9,1.7-2.1,2.3-3.4 c0.5-1.3,0.8-2.7,0.8-4.3C287.3,27.2,287.1,25.9,286.6,24.7"/>
        <path id="XMLID_43_" class="st0" d="M27.2,33.8c-0.1,0.8,0,1.2,0.7,1.6L41,44.3c0.6,0.4,1.4-0.1,1.6-1.1c0.1-0.7,0.8-6.7,1.2-8.4 L27.5,23.9C27.2,25.9,27.2,33.8,27.2,33.8"/>
        <path id="XMLID_40_" class="st0" d="M50.7,27.9L37.6,19c-0.6-0.4-1-0.2-1.6,0.1c0,0-8,4-8.5,4.8c0,0,0,0,0,0l16.2,10.9 c0.7-0.8,6.3-4.3,6.8-4.7C51.6,29.3,51.3,28.3,50.7,27.9"/>
        <path id="XMLID_37_" class="st0" d="M24,33.8c0.1,0.8,0,1.2-0.7,1.6l-13.1,8.9c-0.6,0.4-1.4-0.1-1.6-1.1c-0.1-0.7-0.8-6.7-1.2-8.4 l16.2-10.9C24.1,25.9,24,33.8,24,33.8"/>
        <path id="XMLID_34_" class="st0" d="M0.6,27.9L13.6,19c0.6-0.4,1-0.2,1.6,0.1c0,0,8,4,8.5,4.8c0,0,0,0,0,0L7.5,34.8 c-0.7-0.8-6.3-4.3-6.8-4.7C-0.4,29.3-0.1,28.3,0.6,27.9"/>
        <path id="XMLID_31_" class="st0" d="M15,0c-0.6,0-1.2,0.6-1.2,1.2v14c0,0.7,0.5,0.9,1.2,1.2c0,0,8.6,4,10.3,4.3V3.4 C23.9,3.1,15,0,15,0"/>
        <path id="XMLID_28_" class="st0" d="M35.6,0c0,0-8.7,3.1-10.3,3.4v17.3c1.8-0.4,10.3-4.3,10.3-4.3c0.8-0.3,1.2-0.6,1.2-1.2v-14 C36.8,0.6,36.2,0,35.6,0"/>
    </g>
</svg>
